<svg width="176" height="33" viewBox="0 0 176 33" fill="none" xmlns="http://www.w3.org/2000/svg">
<path d="M3.768 24.216C3.064 24.216 2.512 24.024 2.112 23.64C1.728 23.24 1.536 22.672 1.536 21.936V9.36C1.536 8.624 1.728 8.064 2.112 7.68C2.512 7.28 3.088 7.08 3.84 7.08H11.832C12.408 7.08 12.84 7.224 13.128 7.512C13.416 7.8 13.56 8.216 13.56 8.76C13.56 9.32 13.416 9.752 13.128 10.056C12.84 10.344 12.408 10.488 11.832 10.488H5.952V13.896H11.304C11.864 13.896 12.288 14.04 12.576 14.328C12.88 14.616 13.032 15.032 13.032 15.576C13.032 16.136 12.88 16.56 12.576 16.848C12.288 17.136 11.864 17.28 11.304 17.28H5.952V21.936C5.952 23.456 5.224 24.216 3.768 24.216ZM18.2194 24.216C17.5474 24.216 17.0274 24.016 16.6594 23.616C16.2914 23.216 16.1074 22.64 16.1074 21.888V14.304C16.1074 13.552 16.2914 12.976 16.6594 12.576C17.0274 12.176 17.5474 11.976 18.2194 11.976C18.9074 11.976 19.4354 12.176 19.8034 12.576C20.1874 12.976 20.3794 13.552 20.3794 14.304V21.888C20.3794 22.64 20.1954 23.216 19.8274 23.616C19.4594 24.016 18.9234 24.216 18.2194 24.216ZM18.2194 10.272C17.4674 10.272 16.8834 10.096 16.4674 9.744C16.0674 9.392 15.8674 8.88 15.8674 8.208C15.8674 7.552 16.0674 7.048 16.4674 6.696C16.8834 6.344 17.4674 6.168 18.2194 6.168C19.0034 6.168 19.5954 6.344 19.9954 6.696C20.3954 7.048 20.5954 7.552 20.5954 8.208C20.5954 8.88 20.3954 9.392 19.9954 9.744C19.5954 10.096 19.0034 10.272 18.2194 10.272ZM25.0414 24.216C24.3374 24.216 23.7934 24.032 23.4094 23.664C23.0414 23.296 22.8574 22.76 22.8574 22.056V14.112C22.8574 13.424 23.0334 12.896 23.3854 12.528C23.7534 12.16 24.2734 11.976 24.9454 11.976C25.6174 11.976 26.1294 12.16 26.4814 12.528C26.8334 12.896 27.0094 13.424 27.0094 14.112V15.096H26.7694C26.9294 14.136 27.3374 13.376 27.9934 12.816C28.6654 12.256 29.4974 11.96 30.4894 11.928C30.9534 11.912 31.2974 12.032 31.5214 12.288C31.7614 12.528 31.8894 12.984 31.9054 13.656C31.9054 14.232 31.7854 14.688 31.5454 15.024C31.3054 15.36 30.8494 15.56 30.1774 15.624L29.6254 15.672C28.7774 15.752 28.1614 15.992 27.7774 16.392C27.3934 16.776 27.2014 17.352 27.2014 18.12V22.056C27.2014 22.76 27.0174 23.296 26.6494 23.664C26.2814 24.032 25.7454 24.216 25.0414 24.216ZM37.8504 24.264C37.1464 24.264 36.4264 24.208 35.6904 24.096C34.9704 24 34.3144 23.816 33.7224 23.544C33.3224 23.384 33.0344 23.168 32.8584 22.896C32.6984 22.624 32.6184 22.336 32.6184 22.032C32.6344 21.728 32.7224 21.456 32.8824 21.216C33.0584 20.96 33.2824 20.784 33.5544 20.688C33.8424 20.576 34.1624 20.584 34.5144 20.712C35.1864 20.952 35.7864 21.128 36.3144 21.24C36.8584 21.336 37.3784 21.384 37.8744 21.384C38.4664 21.384 38.8904 21.304 39.1464 21.144C39.4024 20.968 39.5304 20.744 39.5304 20.472C39.5304 20.232 39.4424 20.048 39.2664 19.92C39.1064 19.792 38.8744 19.704 38.5704 19.656L35.9064 19.224C34.9144 19.048 34.1464 18.688 33.6024 18.144C33.0584 17.584 32.7864 16.856 32.7864 15.96C32.7864 15.128 33.0184 14.416 33.4824 13.824C33.9624 13.216 34.6104 12.752 35.4264 12.432C36.2584 12.096 37.2104 11.928 38.2824 11.928C39.0024 11.928 39.6584 11.984 40.2504 12.096C40.8424 12.192 41.4184 12.376 41.9784 12.648C42.3304 12.792 42.5784 13 42.7224 13.272C42.8664 13.544 42.9224 13.832 42.8904 14.136C42.8584 14.424 42.7544 14.696 42.5784 14.952C42.4184 15.192 42.1944 15.36 41.9064 15.456C41.6184 15.536 41.2824 15.512 40.8984 15.384C40.3704 15.176 39.8984 15.024 39.4824 14.928C39.0824 14.832 38.7064 14.784 38.3544 14.784C37.6984 14.784 37.2344 14.872 36.9624 15.048C36.6904 15.224 36.5544 15.448 36.5544 15.72C36.5544 15.928 36.6264 16.104 36.7704 16.248C36.9144 16.376 37.1384 16.464 37.4424 16.512L40.1064 16.968C41.1304 17.128 41.9144 17.48 42.4584 18.024C43.0184 18.552 43.2984 19.272 43.2984 20.184C43.2984 21.48 42.8024 22.488 41.8104 23.208C40.8184 23.912 39.4984 24.264 37.8504 24.264ZM51.1275 24.264C49.9275 24.264 48.9355 24.08 48.1515 23.712C47.3835 23.344 46.8075 22.792 46.4235 22.056C46.0395 21.304 45.8475 20.368 45.8475 19.248V15.336H45.0315C44.5195 15.336 44.1195 15.2 43.8315 14.928C43.5595 14.656 43.4235 14.264 43.4235 13.752C43.4235 13.24 43.5595 12.856 43.8315 12.6C44.1195 12.328 44.5195 12.192 45.0315 12.192H45.8475V10.704C45.8475 10 46.0315 9.464 46.3995 9.096C46.7675 8.728 47.2955 8.544 47.9835 8.544C48.6715 8.544 49.1995 8.728 49.5675 9.096C49.9355 9.464 50.1195 10 50.1195 10.704V12.192H52.0875C52.6155 12.192 53.0155 12.328 53.2875 12.6C53.5755 12.856 53.7195 13.24 53.7195 13.752C53.7195 14.264 53.5755 14.656 53.2875 14.928C53.0155 15.2 52.6155 15.336 52.0875 15.336H50.1195V19.104C50.1195 19.696 50.2555 20.136 50.5275 20.424C50.8155 20.696 51.2635 20.832 51.8715 20.832C52.0955 20.832 52.3115 20.808 52.5195 20.76C52.7275 20.712 52.9195 20.688 53.0955 20.688C53.3515 20.672 53.5595 20.752 53.7195 20.928C53.8795 21.088 53.9595 21.464 53.9595 22.056C53.9595 22.536 53.8875 22.944 53.7435 23.28C53.5995 23.6 53.3435 23.832 52.9755 23.976C52.7515 24.056 52.4475 24.12 52.0635 24.168C51.6795 24.232 51.3675 24.264 51.1275 24.264ZM66.6458 24.168C66.3578 24.168 66.1338 24.088 65.9738 23.928C65.8138 23.752 65.7018 23.496 65.6378 23.16L62.7818 8.136C62.7018 7.752 62.7498 7.456 62.9258 7.248C63.1018 7.024 63.3578 6.912 63.6938 6.912C63.9498 6.912 64.1578 6.984 64.3178 7.128C64.4778 7.272 64.5898 7.512 64.6538 7.848L67.2938 22.32H66.4538L73.8458 7.704C73.9898 7.432 74.1498 7.232 74.3258 7.104C74.5178 6.976 74.7418 6.912 74.9978 6.912C75.2378 6.912 75.4298 6.992 75.5738 7.152C75.7338 7.312 75.8458 7.576 75.9098 7.944L78.5738 22.32H77.8298L85.1978 7.656C85.3258 7.4 85.4698 7.216 85.6298 7.104C85.8058 6.976 86.0138 6.912 86.2538 6.912C86.6538 6.912 86.9178 7.04 87.0458 7.296C87.1738 7.552 87.1498 7.864 86.9738 8.232L79.2698 23.376C79.1258 23.648 78.9578 23.848 78.7658 23.976C78.5898 24.104 78.3498 24.168 78.0458 24.168C77.7738 24.168 77.5498 24.088 77.3738 23.928C77.2138 23.752 77.1018 23.496 77.0378 23.16L74.4458 9.36H74.9498L67.8458 23.376C67.7018 23.648 67.5418 23.848 67.3658 23.976C67.1898 24.104 66.9498 24.168 66.6458 24.168ZM91.5816 24.216C90.4776 24.216 89.5176 24.008 88.7016 23.592C87.8856 23.176 87.2536 22.584 86.8056 21.816C86.3736 21.032 86.1576 20.112 86.1576 19.056C86.1576 17.792 86.4136 16.64 86.9256 15.6C87.4376 14.544 88.1576 13.704 89.0856 13.08C90.0136 12.44 91.1176 12.12 92.3976 12.12C93.3096 12.12 94.0696 12.28 94.6776 12.6C95.3016 12.92 95.7976 13.352 96.1656 13.896C96.5336 14.44 96.7736 15.064 96.8856 15.768C96.9976 16.456 97.0136 17.168 96.9336 17.904C96.9016 18.176 96.8296 18.36 96.7176 18.456C96.6056 18.536 96.4296 18.576 96.1896 18.576H87.6696L87.8616 17.304H95.7336L95.3016 17.616C95.4136 16.864 95.3896 16.184 95.2296 15.576C95.0696 14.968 94.7576 14.48 94.2936 14.112C93.8296 13.744 93.1896 13.56 92.3736 13.56C91.5096 13.56 90.7896 13.76 90.2136 14.16C89.6376 14.544 89.1816 15.04 88.8456 15.648C88.5256 16.256 88.3096 16.888 88.1976 17.544L88.1016 18.12C87.8776 19.48 88.0856 20.576 88.7256 21.408C89.3656 22.24 90.3496 22.656 91.6776 22.656C92.2536 22.656 92.8136 22.584 93.3576 22.44C93.9016 22.296 94.4136 22.064 94.8936 21.744C95.1176 21.6 95.3096 21.536 95.4696 21.552C95.6456 21.552 95.7816 21.608 95.8776 21.72C95.9896 21.816 96.0536 21.944 96.0696 22.104C96.1016 22.248 96.0776 22.408 95.9976 22.584C95.9336 22.744 95.8056 22.896 95.6136 23.04C95.0696 23.424 94.4296 23.72 93.6936 23.928C92.9576 24.12 92.2536 24.216 91.5816 24.216ZM104.955 24.216C104.027 24.216 103.195 23.984 102.459 23.52C101.723 23.04 101.219 22.32 100.947 21.36L101.139 21.072L100.827 23.184C100.779 23.504 100.667 23.752 100.491 23.928C100.315 24.088 100.067 24.168 99.747 24.168C99.443 24.168 99.219 24.072 99.075 23.88C98.931 23.672 98.883 23.384 98.931 23.016L101.331 7.896C101.379 7.56 101.499 7.312 101.691 7.152C101.883 6.992 102.131 6.912 102.435 6.912C102.739 6.912 102.963 7.016 103.107 7.224C103.251 7.416 103.299 7.696 103.251 8.064L102.171 14.808H101.907C102.323 13.976 102.907 13.32 103.659 12.84C104.427 12.36 105.307 12.12 106.299 12.12C107.211 12.12 108.003 12.32 108.675 12.72C109.363 13.12 109.891 13.696 110.259 14.448C110.627 15.2 110.811 16.088 110.811 17.112C110.811 18.392 110.579 19.576 110.115 20.664C109.667 21.736 109.003 22.6 108.123 23.256C107.259 23.896 106.203 24.216 104.955 24.216ZM104.715 22.656C105.611 22.656 106.363 22.408 106.971 21.912C107.579 21.416 108.043 20.752 108.363 19.92C108.683 19.088 108.843 18.176 108.843 17.184C108.843 16.032 108.563 15.16 108.003 14.568C107.443 13.976 106.675 13.68 105.699 13.68C104.819 13.68 104.067 13.928 103.443 14.424C102.835 14.92 102.371 15.576 102.051 16.392C101.731 17.208 101.571 18.128 101.571 19.152C101.571 20.288 101.851 21.16 102.411 21.768C102.971 22.36 103.739 22.656 104.715 22.656ZM125.495 24.192C124.695 24.192 123.935 24.12 123.215 23.976C122.495 23.832 121.823 23.624 121.199 23.352C120.591 23.08 120.039 22.744 119.543 22.344C119.431 22.248 119.351 22.144 119.303 22.032C119.271 21.92 119.271 21.816 119.303 21.72C119.351 21.608 119.415 21.52 119.495 21.456C119.575 21.392 119.671 21.36 119.783 21.36C119.895 21.36 120.007 21.408 120.119 21.504C120.871 22.096 121.663 22.528 122.495 22.8C123.343 23.072 124.343 23.208 125.495 23.208C127.095 23.208 128.295 22.888 129.095 22.248C129.911 21.608 130.319 20.76 130.319 19.704C130.319 18.84 130.023 18.168 129.431 17.688C128.839 17.192 127.871 16.808 126.527 16.536L124.151 16.056C122.647 15.752 121.527 15.248 120.791 14.544C120.055 13.84 119.687 12.888 119.687 11.688C119.687 10.968 119.823 10.32 120.095 9.744C120.383 9.152 120.783 8.648 121.295 8.232C121.807 7.8 122.415 7.472 123.119 7.248C123.823 7.008 124.599 6.888 125.447 6.888C126.503 6.888 127.471 7.048 128.351 7.368C129.231 7.672 130.031 8.152 130.751 8.808C130.863 8.904 130.935 9.016 130.967 9.144C130.999 9.256 130.991 9.368 130.943 9.48C130.911 9.576 130.855 9.656 130.775 9.72C130.711 9.768 130.623 9.792 130.511 9.792C130.399 9.792 130.287 9.736 130.175 9.624C129.487 9.016 128.759 8.576 127.991 8.304C127.223 8.016 126.375 7.872 125.447 7.872C124.503 7.872 123.679 8.032 122.975 8.352C122.271 8.656 121.719 9.096 121.319 9.672C120.935 10.248 120.743 10.92 120.743 11.688C120.743 12.616 121.015 13.352 121.559 13.896C122.103 14.424 122.983 14.808 124.199 15.048L126.575 15.528C128.207 15.864 129.415 16.36 130.199 17.016C130.983 17.656 131.375 18.544 131.375 19.68C131.375 20.352 131.239 20.968 130.967 21.528C130.695 22.072 130.303 22.544 129.791 22.944C129.295 23.344 128.679 23.656 127.943 23.88C127.223 24.088 126.407 24.192 125.495 24.192ZM134.989 24.072C134.829 24.072 134.701 24.024 134.605 23.928C134.525 23.832 134.485 23.704 134.485 23.544V12.84C134.485 12.664 134.525 12.536 134.605 12.456C134.701 12.36 134.829 12.312 134.989 12.312C135.149 12.312 135.269 12.36 135.349 12.456C135.445 12.536 135.493 12.664 135.493 12.84V23.544C135.493 23.704 135.453 23.832 135.373 23.928C135.293 24.024 135.165 24.072 134.989 24.072ZM134.989 9.216C134.733 9.216 134.525 9.144 134.365 9C134.221 8.84 134.149 8.632 134.149 8.376C134.149 8.104 134.221 7.904 134.365 7.776C134.525 7.632 134.733 7.56 134.989 7.56C135.261 7.56 135.469 7.632 135.613 7.776C135.757 7.904 135.829 8.104 135.829 8.376C135.829 8.632 135.757 8.84 135.613 9C135.469 9.144 135.261 9.216 134.989 9.216ZM143.651 24.192C142.851 24.192 142.179 24.04 141.635 23.736C141.091 23.416 140.683 22.968 140.411 22.392C140.139 21.8 140.003 21.088 140.003 20.256V13.248H138.059C137.899 13.248 137.771 13.208 137.675 13.128C137.579 13.048 137.531 12.944 137.531 12.816C137.531 12.688 137.579 12.584 137.675 12.504C137.771 12.424 137.899 12.384 138.059 12.384H140.003V9.144C140.003 8.968 140.043 8.84 140.123 8.76C140.219 8.664 140.347 8.616 140.507 8.616C140.667 8.616 140.787 8.664 140.867 8.76C140.963 8.84 141.011 8.968 141.011 9.144V12.384H144.443C144.619 12.384 144.747 12.424 144.827 12.504C144.923 12.584 144.971 12.688 144.971 12.816C144.971 12.944 144.923 13.048 144.827 13.128C144.747 13.208 144.619 13.248 144.443 13.248H141.011V20.04C141.011 21.08 141.219 21.88 141.635 22.44C142.051 22.984 142.747 23.256 143.723 23.256C144.059 23.256 144.331 23.224 144.539 23.16C144.763 23.08 144.947 23.04 145.091 23.04C145.187 23.04 145.267 23.08 145.331 23.16C145.411 23.24 145.451 23.352 145.451 23.496C145.451 23.576 145.427 23.664 145.379 23.76C145.347 23.84 145.275 23.896 145.163 23.928C145.003 23.992 144.771 24.048 144.467 24.096C144.179 24.16 143.907 24.192 143.651 24.192ZM151.966 24.192C150.814 24.192 149.822 23.952 148.99 23.472C148.158 22.992 147.51 22.312 147.046 21.432C146.598 20.536 146.374 19.472 146.374 18.24C146.374 17.024 146.598 15.968 147.046 15.072C147.51 14.16 148.142 13.456 148.942 12.96C149.758 12.448 150.694 12.192 151.75 12.192C152.502 12.192 153.166 12.32 153.742 12.576C154.334 12.832 154.83 13.2 155.23 13.68C155.646 14.16 155.958 14.744 156.166 15.432C156.39 16.12 156.502 16.896 156.502 17.76C156.502 17.968 156.454 18.128 156.358 18.24C156.278 18.336 156.15 18.384 155.974 18.384H147.022V17.496H155.974L155.566 17.784C155.566 16.808 155.422 15.976 155.134 15.288C154.846 14.584 154.414 14.048 153.838 13.68C153.278 13.296 152.574 13.104 151.726 13.104C150.798 13.104 150.006 13.328 149.35 13.776C148.71 14.208 148.222 14.8 147.886 15.552C147.566 16.304 147.406 17.16 147.406 18.12V18.24C147.406 19.84 147.798 21.08 148.582 21.96C149.382 22.824 150.494 23.256 151.918 23.256C152.558 23.256 153.158 23.176 153.718 23.016C154.278 22.84 154.83 22.536 155.374 22.104C155.486 22.008 155.598 21.96 155.71 21.96C155.838 21.944 155.942 21.968 156.022 22.032C156.118 22.08 156.182 22.152 156.214 22.248C156.262 22.328 156.27 22.424 156.238 22.536C156.206 22.648 156.126 22.752 155.998 22.848C155.502 23.264 154.894 23.592 154.174 23.832C153.454 24.072 152.718 24.192 151.966 24.192Z" fill="#3094FF"/>
</svg>
