<svg width="9" height="9" viewBox="0 0 9 9" fill="none" xmlns="http://www.w3.org/2000/svg">
<path d="M8.7925 4.305C8.7925 5.765 8.07125 6.83625 6.80875 6.83625C6.18 6.83625 5.55625 6.55125 5.40875 6.02625H5.355C5.2075 6.54625 4.67625 6.83 4.08625 6.83C3.12375 6.83 2.5125 6.1525 2.5125 5.0375V4.37625C2.5125 3.32125 3.11375 2.62625 4.0875 2.62625C4.81875 2.62625 5.175 3.0425 5.27875 3.41375H5.31625V2.70375H6.4475V5.44125C6.4475 5.78125 6.6725 5.96625 6.96125 5.96625C7.355 5.96625 7.76 5.4475 7.76 4.22875V4.08125C7.76 2.485 6.5725 1.17375 4.655 1.17375H4.605C2.6275 1.17375 1.305 2.5075 1.305 4.57875V4.775C1.305 7.10875 2.85125 8.0925 4.5175 8.0925H4.57375C5.2075 8.0925 5.7425 8.005 6.04875 7.8675V8.78125C5.775 8.90625 5.245 9 4.5025 9H4.4475C2.0475 9 0.25 7.525 0.25 4.8075V4.54C0.25 1.95 2.02625 0.25 4.60625 0.25H4.65C7.3 0.25 8.7925 2.0375 8.7925 4.0425V4.305ZM3.7425 4.5675V4.85125C3.7425 5.58375 4.02625 5.85125 4.46875 5.85125C4.85625 5.85125 5.17375 5.63875 5.17375 4.9225V4.46375C5.17375 3.81875 4.83 3.57875 4.45875 3.57875C4.02625 3.57875 3.7425 3.885 3.7425 4.5675Z" fill="black"/>
</svg>
